<svg width="820" height="584" viewBox="0 0 820 584" fill="none" xmlns="http://www.w3.org/2000/svg">
<path d="M116.365 508.492C78.7884 531.846 41.2121 531.836 3.63575 508.463C2.44622 507.735 1.48019 506.697 0.842596 505.462C0.205002 504.227 -0.0797829 502.842 0.0192219 501.457L11.7442 350H106.579L119.974 501.404C120.09 502.802 119.814 504.204 119.177 505.455C118.54 506.706 117.566 507.757 116.365 508.492V508.492Z" fill="#3F3D56"/>
<path d="M58.5 369C84.7335 369 106 361.165 106 351.5C106 341.835 84.7335 334 58.5 334C32.2665 334 11 341.835 11 351.5C11 361.165 32.2665 369 58.5 369Z" fill="#2F2E41"/>
<path d="M96 345.761C71.2081 363.413 47.2082 363.413 24 345.761V318H96V345.761Z" fill="#A63F3F"/>
<path d="M60.0001 332C79.8823 332 96 325.732 96 318C96 310.268 79.8823 304 60.0001 304C40.1178 304 24 310.268 24 318C24 325.732 40.1178 332 60.0001 332Z" fill="#A63F3F"/>
<path d="M61.5001 318C63.4331 318 65 317.328 65 316.5C65 315.672 63.4331 315 61.5001 315C59.567 315 58 315.672 58 316.5C58 317.328 59.567 318 61.5001 318Z" fill="#E6E6E6"/>
<path d="M77.5 318C79.433 318 81 317.328 81 316.5C81 315.672 79.433 315 77.5 315C75.567 315 74 315.672 74 316.5C74 317.328 75.567 318 77.5 318Z" fill="#E6E6E6"/>
<path d="M69.5 322C71.433 322 73 321.328 73 320.5C73 319.672 71.433 319 69.5 319C67.567 319 66 319.672 66 320.5C66 321.328 67.567 322 69.5 322Z" fill="#E6E6E6"/>
<path d="M37.4999 322C39.433 322 41 321.328 41 320.5C41 319.672 39.433 319 37.4999 319C35.5669 319 34 319.672 34 320.5C34 321.328 35.5669 322 37.4999 322Z" fill="#E6E6E6"/>
<path d="M45.5 318C47.433 318 49 317.328 49 316.5C49 315.672 47.433 315 45.5 315C43.567 315 42 315.672 42 316.5C42 317.328 43.567 318 45.5 318Z" fill="#E6E6E6"/>
<path d="M54.5001 312C56.4331 312 58 311.328 58 310.5C58 309.672 56.4331 309 54.5001 309C52.567 309 51 309.672 51 310.5C51 311.328 52.567 312 54.5001 312Z" fill="#E6E6E6"/>
<path d="M70.5 312C72.433 312 74 311.328 74 310.5C74 309.672 72.433 309 70.5 309C68.567 309 67 309.672 67 310.5C67 311.328 68.567 312 70.5 312Z" fill="#E6E6E6"/>
<path d="M37.5 314C39.433 314 41 313.328 41 312.5C41 311.672 39.433 311 37.5 311C35.567 311 34 311.672 34 312.5C34 313.328 35.567 314 37.5 314Z" fill="#E6E6E6"/>
<path d="M53.5 324C55.433 324 57 323.328 57 322.5C57 321.672 55.433 321 53.5 321C51.567 321 50 321.672 50 322.5C50 323.328 51.567 324 53.5 324Z" fill="#E6E6E6"/>
<path d="M422 584C641.809 584 820 570.792 820 554.5C820 538.208 641.809 525 422 525C202.191 525 24 538.208 24 554.5C24 570.792 202.191 584 422 584Z" fill="#E6E6E6"/>
<path d="M667.268 562.139C530.855 537.551 391.145 537.551 254.732 562.139C252.565 562.532 250.339 562.444 248.209 561.882C246.08 561.321 244.1 560.298 242.409 558.888C240.718 557.477 239.357 555.712 238.422 553.718C237.488 551.724 237.002 549.549 237 547.347V360.446H685V547.347C684.998 549.549 684.512 551.724 683.578 553.718C682.643 555.712 681.282 557.477 679.591 558.888C677.9 560.298 675.92 561.321 673.791 561.882C671.661 562.444 669.435 562.532 667.268 562.139Z" fill="#A63F3F"/>
<path d="M644 222.446C633.656 222.437 623.382 224.156 613.605 227.533C599.343 196.6 576.555 170.377 547.913 151.941C519.272 133.505 485.966 123.621 451.904 123.449C417.843 123.277 384.439 132.824 355.613 150.969C326.786 169.115 303.734 195.106 289.161 225.893C274.811 221.868 259.703 221.35 245.111 224.383C230.519 227.417 216.87 233.913 205.313 243.324C193.756 252.735 184.63 264.785 178.704 278.461C172.778 292.136 170.225 307.035 171.26 321.903C172.296 336.771 176.889 351.172 184.653 363.894C192.418 376.616 203.126 387.285 215.876 395.003C228.626 402.722 243.044 407.263 257.915 408.245C272.787 409.226 287.677 406.619 301.331 400.643C317.741 425.65 340.155 446.146 366.526 460.261C392.897 474.375 422.384 481.657 452.294 481.442C482.203 481.227 511.582 473.521 537.747 459.029C563.913 444.536 586.03 423.72 602.079 398.479C614.617 404.809 628.426 408.217 642.47 408.447C656.514 408.677 670.427 405.724 683.166 399.808C695.905 393.892 707.139 385.168 716.024 374.29C724.91 363.412 731.216 350.663 734.47 337C737.724 323.336 737.841 309.113 734.812 295.398C731.783 281.683 725.688 268.832 716.982 257.809C708.277 246.786 697.188 237.879 684.549 231.754C671.909 225.63 658.046 222.447 644 222.446Z" fill="#A63F3F"/>
<path d="M273 302.446H271C270.932 275.819 276.825 249.514 288.247 225.461L290.055 226.317C278.759 250.103 272.932 276.115 273 302.446Z" fill="#3F3D56"/>
<path d="M631 302.446H629C629.062 276.722 623.501 251.295 612.706 227.945L614.522 227.107C625.439 250.72 631.063 276.433 631 302.446Z" fill="#3F3D56"/>
<path d="M237.241 447.417L236.759 445.476C237.323 445.336 294.162 431.376 377.459 424.449C454.34 418.057 570.146 416.515 685.244 445.477L684.756 447.416C569.939 418.526 454.387 420.062 377.667 426.44C294.519 433.351 237.804 447.277 237.241 447.417Z" fill="#3F3D56"/>
<path d="M237.241 474.417L236.759 472.476C237.323 472.336 294.162 458.376 377.459 451.449C454.34 445.057 570.146 443.515 685.244 472.477L684.756 474.416C569.939 445.526 454.387 447.064 377.667 453.44C294.519 460.351 237.804 474.277 237.241 474.417Z" fill="#3F3D56"/>
<path d="M237.241 501.417L236.759 499.476C237.323 499.336 294.162 485.376 377.459 478.449C454.34 472.057 570.146 470.515 685.244 499.477L684.756 501.416C569.939 472.526 454.387 474.064 377.667 480.44C294.519 487.351 237.804 501.277 237.241 501.417Z" fill="#3F3D56"/>
<path d="M605.267 354.602L581.037 346.364L604.298 227.635L588.306 226.181C572.712 238.146 551.946 242.836 525.307 239.266L567.952 303.719L546.207 319.068L476.839 235.863C473.712 232.112 472 227.384 472 222.501C472 217.975 473.472 213.571 476.194 209.954C478.916 206.337 482.741 203.703 487.091 202.451L561.168 181.113L647.912 190.805C661.027 210.799 661.54 224.705 641.576 228.716L605.267 354.602Z" fill="#2F2E41"/>
<path d="M580.467 400.79C577.962 400.632 575.53 399.884 573.368 398.61C571.207 397.335 569.376 395.568 568.025 393.453C566.674 391.338 565.841 388.934 565.594 386.436C565.347 383.939 565.692 381.418 566.601 379.079L578.647 348.104C584.766 336.512 593.164 337.963 603.08 348.104L607.926 362.319C608.325 363.489 608.483 364.728 608.391 365.961C608.3 367.195 607.959 368.396 607.391 369.495L595.65 392.195C594.226 394.947 592.033 397.225 589.337 398.751C586.641 400.277 583.559 400.986 580.467 400.79Z" fill="#2F2E41"/>
<path d="M549.152 360.227C546.647 360.069 544.215 359.322 542.054 358.047C539.892 356.772 538.061 355.005 536.71 352.89C535.36 350.775 534.527 348.371 534.279 345.874C534.032 343.376 534.377 340.855 535.287 338.516L547.333 307.541C553.451 295.95 561.849 297.401 571.765 307.541L576.611 321.756C577.01 322.926 577.169 324.166 577.077 325.399C576.985 326.632 576.645 327.834 576.076 328.932L564.335 351.632C562.912 354.384 560.718 356.662 558.022 358.188C555.326 359.715 552.244 360.423 549.152 360.227Z" fill="#2F2E41"/>
<path d="M564.56 67.715C579.548 67.715 591.698 55.5648 591.698 40.577C591.698 25.5891 579.548 13.439 564.56 13.439C549.572 13.439 537.422 25.5891 537.422 40.577C537.422 55.5648 549.572 67.715 564.56 67.715Z" fill="#FFB9B9"/>
<path d="M606.721 78.8613L569.406 98.2453L561.652 63.3533L587.336 47.3613L606.721 78.8613Z" fill="#FFB9B9"/>
<path d="M651.789 195.651C614.555 184.405 580.771 178.578 556.322 187.413C564.749 163.705 549.194 127.501 532.091 90.4915C539.471 80.8448 551.237 77.1081 564.56 75.4687C579.137 86.0531 589.301 79.2596 597.029 62.8689C613.882 62.1924 630.124 68.1608 645.974 78.3763C633.584 118.062 635.814 157.142 651.789 195.651Z" fill="#3F3D56"/>
<path d="M555.837 193.228C549.957 196.694 544.531 202.531 539.36 209.705C530.622 204.356 522.932 198.266 516.874 191.022C512.634 185.886 509.743 179.773 508.463 173.237C507.183 166.701 507.554 159.949 509.544 153.593L526.105 99.7712C527.48 95.301 530.152 91.34 533.782 88.3907L535.968 86.6147L557.775 127.806L535.968 168.513C538.734 175.928 546.883 184.492 555.837 193.228Z" fill="#3F3D56"/>
<path d="M563.343 234.264C561.366 235.165 559.206 235.594 557.035 235.517C554.863 235.439 552.74 234.858 550.832 233.818C548.924 232.778 547.284 231.308 546.042 229.525C544.8 227.743 543.99 225.695 543.676 223.545L540.072 198.871L552.672 192.086L568.663 213.02C569.94 214.692 570.824 216.63 571.249 218.691C571.675 220.752 571.63 222.882 571.119 224.923C570.608 226.964 569.643 228.864 568.297 230.481C566.951 232.098 565.258 233.391 563.343 234.264Z" fill="#FFB9B9"/>
<path d="M591.94 39.3894L587.307 39.5271L574.454 21.3198C557.984 23.0224 544.489 30.1778 533.068 41.1381L531.91 33.4185C530.806 26.0568 532.565 18.5518 536.825 12.4473C541.085 6.34272 547.523 2.10277 554.813 0.599536H554.813C558.643 -0.190049 562.592 -0.199822 566.425 0.570788C570.259 1.3414 573.898 2.87658 577.124 5.08469C580.351 7.2928 583.1 10.1286 585.207 13.4226C587.313 16.7166 588.734 20.4014 589.385 24.2568L591.94 39.3894Z" fill="#2F2E41"/>
<path d="M539.828 209.715C538.927 207.738 538.498 205.578 538.575 203.406C538.653 201.235 539.234 199.111 540.274 197.203C541.314 195.296 542.783 193.656 544.566 192.414C546.349 191.172 548.397 190.362 550.547 190.048L575.221 186.444L582.006 199.043L561.072 215.034C559.4 216.312 557.462 217.196 555.401 217.621C553.34 218.046 551.21 218.002 549.169 217.49C547.128 216.979 545.228 216.015 543.611 214.669C541.994 213.322 540.701 211.629 539.828 209.715Z" fill="#FFB9B9"/>
<path d="M656.49 187.27C633.015 189.093 607.384 196.413 580.552 206.797C580.219 198.832 577.33 191.186 572.314 184.99C596.684 178.571 618.798 171.038 632.405 159.306L624.167 97.276L642.097 76.9225L645.19 78.5361C647.759 79.8708 650.018 81.7306 651.821 83.9948C653.625 86.2591 654.932 88.8772 655.659 91.6794C663.23 121.128 666.592 149.344 664.281 175.897C664.579 178.415 663.954 180.955 662.521 183.047C661.089 185.138 658.946 186.639 656.49 187.27Z" fill="#3F3D56"/>
<path d="M182.516 550.089C146.506 572.646 110.495 572.637 74.4843 550.061C73.3443 549.358 72.4185 548.355 71.8074 547.162C71.1964 545.969 70.9235 544.632 71.0184 543.294L82.2549 397H173.138L185.975 543.243C186.086 544.593 185.822 545.947 185.211 547.155C184.6 548.364 183.668 549.379 182.516 550.089Z" fill="#2F2E41"/>
<path d="M127 415C152.405 415 173 407.613 173 398.5C173 389.387 152.405 382 127 382C101.595 382 81 389.387 81 398.5C81 407.613 101.595 415 127 415Z" fill="#3F3D56"/>
<path d="M163 393.407C139.241 410.198 116.241 410.198 94 393.407V367H163V393.407Z" fill="#A63F3F"/>
<path d="M128.5 380C147.554 380 163 373.956 163 366.5C163 359.044 147.554 353 128.5 353C109.446 353 94 359.044 94 366.5C94 373.956 109.446 380 128.5 380Z" fill="#A63F3F"/>
<path d="M130 367C131.657 367 133 366.105 133 365C133 363.895 131.657 363 130 363C128.343 363 127 363.895 127 365C127 366.105 128.343 367 130 367Z" fill="#E6E6E6"/>
<path d="M145.5 367C147.433 367 149 366.105 149 365C149 363.895 147.433 363 145.5 363C143.567 363 142 363.895 142 365C142 366.105 143.567 367 145.5 367Z" fill="#E6E6E6"/>
<path d="M138 371C139.657 371 141 370.105 141 369C141 367.895 139.657 367 138 367C136.343 367 135 367.895 135 369C135 370.105 136.343 371 138 371Z" fill="#E6E6E6"/>
<path d="M106.5 371C108.433 371 110 370.105 110 369C110 367.895 108.433 367 106.5 367C104.567 367 103 367.895 103 369C103 370.105 104.567 371 106.5 371Z" fill="#E6E6E6"/>
<path d="M114.5 367C116.433 367 118 366.105 118 365C118 363.895 116.433 363 114.5 363C112.567 363 111 363.895 111 365C111 366.105 112.567 367 114.5 367Z" fill="#E6E6E6"/>
<path d="M122 361C123.657 361 125 360.105 125 359C125 357.895 123.657 357 122 357C120.343 357 119 357.895 119 359C119 360.105 120.343 361 122 361Z" fill="#E6E6E6"/>
<path d="M137.5 361C139.433 361 141 360.105 141 359C141 357.895 139.433 357 137.5 357C135.567 357 134 357.895 134 359C134 360.105 135.567 361 137.5 361Z" fill="#E6E6E6"/>
<path d="M122.5 373C124.433 373 126 372.105 126 371C126 369.895 124.433 369 122.5 369C120.567 369 119 369.895 119 371C119 372.105 120.567 373 122.5 373Z" fill="#E6E6E6"/>
</svg>
