<svg width="728" height="584" viewBox="0 0 728 584" fill="none" xmlns="http://www.w3.org/2000/svg">
<path d="M364 583.332C565.032 583.332 728 573.981 728 562.446C728 550.912 565.032 541.561 364 541.561C162.968 541.561 0 550.912 0 562.446C0 573.981 162.968 583.332 364 583.332Z" fill="#E6E6E6"/>
<path d="M579.268 562.139C442.855 537.551 303.145 537.551 166.732 562.139C164.565 562.532 162.339 562.444 160.209 561.882C158.08 561.321 156.1 560.298 154.409 558.888C152.718 557.477 151.357 555.712 150.422 553.718C149.488 551.724 149.002 549.549 149 547.347V360.446H597V547.347C596.998 549.549 596.512 551.724 595.578 553.718C594.643 555.712 593.282 557.477 591.591 558.888C589.9 560.298 587.92 561.321 585.791 561.882C583.661 562.444 581.435 562.532 579.268 562.139V562.139Z" fill="#A63F3F"/>
<path d="M556 222.446C545.656 222.437 535.382 224.156 525.605 227.533C511.343 196.6 488.555 170.377 459.913 151.941C431.272 133.505 397.966 123.621 363.904 123.449C329.843 123.277 296.439 132.824 267.613 150.969C238.786 169.115 215.734 195.106 201.161 225.893C186.811 221.868 171.703 221.35 157.111 224.383C142.519 227.417 128.87 233.913 117.313 243.324C105.756 252.735 96.6299 264.785 90.7037 278.461C84.7775 292.136 82.2246 307.035 83.2601 321.903C84.2955 336.771 88.889 351.172 96.6535 363.894C104.418 376.616 115.126 387.285 127.876 395.003C140.626 402.722 155.044 407.263 169.915 408.245C184.787 409.226 199.677 406.619 213.331 400.643C229.741 425.65 252.155 446.146 278.526 460.261C304.897 474.375 334.384 481.657 364.294 481.442C394.203 481.227 423.582 473.521 449.747 459.029C475.913 444.536 498.03 423.72 514.079 398.479C526.617 404.809 540.426 408.217 554.47 408.447C568.514 408.677 582.427 405.724 595.166 399.808C607.905 393.892 619.139 385.168 628.024 374.29C636.91 363.412 643.216 350.663 646.47 337C649.724 323.336 649.841 309.113 646.812 295.398C643.783 281.683 637.688 268.832 628.982 257.809C620.277 246.786 609.188 237.879 596.549 231.754C583.909 225.63 570.046 222.447 556 222.446V222.446Z" fill="#A63F3F"/>
<path d="M185 302.446H183C182.932 275.819 188.825 249.514 200.247 225.461L202.055 226.317C190.759 250.103 184.932 276.115 185 302.446V302.446Z" fill="#3F3D56"/>
<path d="M543 302.446H541C541.062 276.722 535.501 251.295 524.706 227.945L526.522 227.107C537.439 250.72 543.063 276.433 543 302.446V302.446Z" fill="#3F3D56"/>
<path d="M149.241 447.417L148.759 445.476C149.323 445.336 206.162 431.376 289.459 424.449C366.34 418.057 482.146 416.515 597.244 445.477L596.756 447.416C481.939 418.526 366.387 420.062 289.667 426.44C206.519 433.351 149.804 447.277 149.241 447.417Z" fill="#3F3D56"/>
<path d="M149.241 474.417L148.759 472.476C149.323 472.336 206.162 458.376 289.459 451.449C366.34 445.057 482.146 443.515 597.244 472.477L596.756 474.416C481.939 445.526 366.387 447.064 289.667 453.44C206.519 460.351 149.804 474.277 149.241 474.417Z" fill="#3F3D56"/>
<path d="M149.241 501.417L148.759 499.476C149.323 499.336 206.162 485.376 289.459 478.449C366.34 472.057 482.146 470.515 597.244 499.477L596.756 501.416C481.939 472.526 366.387 474.064 289.667 480.44C206.519 487.351 149.804 501.277 149.241 501.417Z" fill="#3F3D56"/>
<path d="M517.267 354.602L493.037 346.364L516.298 227.635L500.306 226.181C484.712 238.146 463.946 242.836 437.307 239.266L479.952 303.719L458.207 319.068L388.839 235.863C385.712 232.112 384 227.384 384 222.501C384 217.975 385.472 213.571 388.194 209.954C390.916 206.337 394.741 203.703 399.091 202.451L473.168 181.113L559.912 190.805C573.027 210.799 573.54 224.705 553.576 228.716L517.267 354.602Z" fill="#2F2E41"/>
<path d="M492.467 400.79C489.962 400.632 487.53 399.884 485.368 398.61C483.207 397.335 481.376 395.568 480.025 393.453C478.674 391.338 477.841 388.934 477.594 386.436C477.347 383.939 477.692 381.418 478.601 379.079L490.647 348.104C496.766 336.512 505.164 337.963 515.08 348.104L519.926 362.319C520.325 363.489 520.483 364.728 520.391 365.961C520.3 367.195 519.959 368.396 519.391 369.495L507.65 392.195C506.226 394.947 504.033 397.225 501.337 398.751C498.641 400.277 495.559 400.986 492.467 400.79V400.79Z" fill="#2F2E41"/>
<path d="M461.152 360.227C458.647 360.069 456.215 359.322 454.054 358.047C451.892 356.772 450.061 355.005 448.71 352.89C447.36 350.775 446.527 348.371 446.279 345.874C446.032 343.376 446.377 340.855 447.287 338.516L459.333 307.541C465.451 295.95 473.849 297.401 483.765 307.541L488.611 321.756C489.01 322.926 489.169 324.166 489.077 325.399C488.985 326.632 488.645 327.834 488.076 328.932L476.335 351.632C474.912 354.384 472.718 356.662 470.022 358.188C467.326 359.715 464.244 360.423 461.152 360.227Z" fill="#2F2E41"/>
<path d="M476.56 67.715C491.548 67.715 503.698 55.5648 503.698 40.577C503.698 25.5891 491.548 13.439 476.56 13.439C461.572 13.439 449.422 25.5891 449.422 40.577C449.422 55.5648 461.572 67.715 476.56 67.715Z" fill="#FFB9B9"/>
<path d="M518.721 78.8613L481.406 98.2453L473.652 63.3533L499.336 47.3613L518.721 78.8613Z" fill="#FFB9B9"/>
<path d="M563.789 195.651C526.555 184.405 492.771 178.578 468.322 187.413C476.749 163.705 461.194 127.501 444.091 90.4915C451.471 80.8448 463.237 77.1081 476.56 75.4687C491.137 86.0531 501.301 79.2596 509.029 62.8689C525.882 62.1924 542.124 68.1608 557.974 78.3763C545.584 118.062 547.814 157.142 563.789 195.651Z" fill="#3F3D56"/>
<path d="M467.837 193.228C461.957 196.694 456.531 202.531 451.36 209.705C442.622 204.356 434.932 198.266 428.874 191.022C424.634 185.886 421.743 179.773 420.463 173.237C419.183 166.701 419.554 159.949 421.544 153.593L438.105 99.7712C439.48 95.301 442.152 91.34 445.782 88.3907L447.968 86.6147L469.775 127.806L447.968 168.513C450.734 175.928 458.883 184.492 467.837 193.228Z" fill="#3F3D56"/>
<path d="M475.343 234.264C473.366 235.165 471.206 235.594 469.035 235.517C466.863 235.439 464.74 234.858 462.832 233.818C460.924 232.778 459.284 231.308 458.042 229.525C456.8 227.743 455.99 225.695 455.676 223.545L452.072 198.871L464.672 192.086L480.663 213.02C481.94 214.692 482.824 216.63 483.249 218.691C483.675 220.752 483.63 222.882 483.119 224.923C482.608 226.964 481.643 228.864 480.297 230.481C478.951 232.098 477.258 233.391 475.343 234.264V234.264Z" fill="#FFB9B9"/>
<path d="M503.94 39.3894L499.307 39.5271L486.454 21.3198C469.984 23.0224 456.489 30.1778 445.068 41.1381L443.91 33.4185C442.806 26.0568 444.565 18.5518 448.825 12.4473C453.085 6.34272 459.523 2.10277 466.813 0.599536H466.813C470.643 -0.190049 474.592 -0.199822 478.425 0.570788C482.259 1.3414 485.898 2.87658 489.124 5.08469C492.351 7.2928 495.1 10.1286 497.207 13.4226C499.313 16.7166 500.734 20.4014 501.385 24.2568L503.94 39.3894Z" fill="#2F2E41"/>
<path d="M451.828 209.715C450.927 207.738 450.498 205.578 450.575 203.406C450.653 201.235 451.234 199.111 452.274 197.203C453.314 195.296 454.783 193.656 456.566 192.414C458.349 191.172 460.397 190.362 462.547 190.048L487.221 186.444L494.006 199.043L473.072 215.034C471.4 216.312 469.462 217.196 467.401 217.621C465.34 218.046 463.21 218.002 461.169 217.49C459.128 216.979 457.228 216.015 455.611 214.669C453.994 213.322 452.701 211.629 451.828 209.715V209.715Z" fill="#FFB9B9"/>
<path d="M568.49 187.27C545.015 189.093 519.384 196.413 492.552 206.797C492.219 198.832 489.33 191.186 484.314 184.99C508.684 178.571 530.798 171.038 544.405 159.306L536.167 97.276L554.097 76.9225L557.19 78.5361C559.759 79.8708 562.018 81.7306 563.821 83.9948C565.625 86.2591 566.932 88.8772 567.659 91.6794C575.23 121.128 578.592 149.344 576.281 175.897C576.579 178.415 575.954 180.955 574.521 183.047C573.089 185.138 570.946 186.639 568.49 187.27V187.27Z" fill="#3F3D56"/>
<path d="M95.8859 556.558C74.0536 570.214 52.2212 570.208 30.3887 556.541C29.6976 556.115 29.1363 555.509 28.7658 554.786C28.3954 554.064 28.23 553.254 28.2875 552.445L35.0999 463.883H90.2004L97.9832 552.414C98.0504 553.231 97.89 554.05 97.5198 554.782C97.1496 555.514 96.5841 556.128 95.8859 556.558V556.558Z" fill="#3F3D56"/>
<path d="M62.396 474.903C77.7519 474.903 90.2004 470.418 90.2004 464.885C90.2004 459.352 77.7519 454.867 62.396 454.867C47.0401 454.867 34.5916 459.352 34.5916 464.885C34.5916 470.418 47.0401 474.903 62.396 474.903Z" fill="#3F3D56"/>
<path d="M84.1894 461.503C69.7011 471.695 55.6755 471.695 42.1127 461.503V445.474H84.1894V461.503Z" fill="#A63F3F"/>
<path d="M63.151 453.489C74.7702 453.489 84.1894 449.9 84.1894 445.474C84.1894 441.048 74.7702 437.459 63.151 437.459C51.5319 437.459 42.1127 441.048 42.1127 445.474C42.1127 449.9 51.5319 453.489 63.151 453.489Z" fill="#A63F3F"/>
<path d="M64.1529 445.474C65.2595 445.474 66.1565 445.026 66.1565 444.472C66.1565 443.919 65.2595 443.47 64.1529 443.47C63.0463 443.47 62.1492 443.919 62.1492 444.472C62.1492 445.026 63.0463 445.474 64.1529 445.474Z" fill="#E6E6E6"/>
<path d="M73.614 445.474C74.7206 445.474 75.6177 445.026 75.6177 444.472C75.6177 443.919 74.7206 443.47 73.614 443.47C72.5074 443.47 71.6104 443.919 71.6104 444.472C71.6104 445.026 72.5074 445.474 73.614 445.474Z" fill="#E6E6E6"/>
<path d="M68.8834 447.839C69.99 447.839 70.8871 447.391 70.8871 446.838C70.8871 446.284 69.99 445.836 68.8834 445.836C67.7768 445.836 66.8798 446.284 66.8798 446.838C66.8798 447.391 67.7768 447.839 68.8834 447.839Z" fill="#E6E6E6"/>
<path d="M49.9612 447.839C51.0678 447.839 51.9649 447.391 51.9649 446.838C51.9649 446.284 51.0678 445.836 49.9612 445.836C48.8546 445.836 47.9576 446.284 47.9576 446.838C47.9576 447.391 48.8546 447.839 49.9612 447.839Z" fill="#E6E6E6"/>
<path d="M54.6918 445.474C55.7983 445.474 56.6954 445.026 56.6954 444.472C56.6954 443.919 55.7983 443.47 54.6918 443.47C53.5852 443.47 52.6881 443.919 52.6881 444.472C52.6881 445.026 53.5852 445.474 54.6918 445.474Z" fill="#E6E6E6"/>
<path d="M59.4224 449.022C60.5289 449.022 61.426 448.573 61.426 448.02C61.426 447.467 60.5289 447.018 59.4224 447.018C58.3158 447.018 57.4187 447.467 57.4187 448.02C57.4187 448.573 58.3158 449.022 59.4224 449.022Z" fill="#E6E6E6"/>
<path d="M700.886 556.558C679.054 570.214 657.221 570.208 635.389 556.541C634.698 556.115 634.136 555.509 633.766 554.786C633.395 554.064 633.23 553.254 633.288 552.445L640.1 463.883H695.2L702.983 552.414C703.051 553.231 702.89 554.05 702.52 554.782C702.15 555.514 701.584 556.128 700.886 556.558V556.558Z" fill="#3F3D56"/>
<path d="M667.396 474.903C682.752 474.903 695.2 470.418 695.2 464.885C695.2 459.352 682.752 454.867 667.396 454.867C652.04 454.867 639.592 459.352 639.592 464.885C639.592 470.418 652.04 474.903 667.396 474.903Z" fill="#3F3D56"/>
<path d="M689.189 461.503C674.701 471.695 660.675 471.695 647.113 461.503V445.474H689.189V461.503Z" fill="#A63F3F"/>
<path d="M668.151 453.489C679.77 453.489 689.189 449.9 689.189 445.474C689.189 441.048 679.77 437.459 668.151 437.459C656.532 437.459 647.113 441.048 647.113 445.474C647.113 449.9 656.532 453.489 668.151 453.489Z" fill="#A63F3F"/>
<path d="M669.153 445.474C670.259 445.474 671.156 445.026 671.156 444.472C671.156 443.919 670.259 443.47 669.153 443.47C668.046 443.47 667.149 443.919 667.149 444.472C667.149 445.026 668.046 445.474 669.153 445.474Z" fill="#E6E6E6"/>
<path d="M678.614 445.474C679.721 445.474 680.618 445.026 680.618 444.472C680.618 443.919 679.721 443.47 678.614 443.47C677.507 443.47 676.61 443.919 676.61 444.472C676.61 445.026 677.507 445.474 678.614 445.474Z" fill="#E6E6E6"/>
<path d="M673.883 447.839C674.99 447.839 675.887 447.391 675.887 446.838C675.887 446.284 674.99 445.836 673.883 445.836C672.777 445.836 671.88 446.284 671.88 446.838C671.88 447.391 672.777 447.839 673.883 447.839Z" fill="#E6E6E6"/>
<path d="M654.961 447.839C656.068 447.839 656.965 447.391 656.965 446.838C656.965 446.284 656.068 445.836 654.961 445.836C653.855 445.836 652.958 446.284 652.958 446.838C652.958 447.391 653.855 447.839 654.961 447.839Z" fill="#E6E6E6"/>
<path d="M659.692 445.474C660.798 445.474 661.695 445.026 661.695 444.472C661.695 443.919 660.798 443.47 659.692 443.47C658.585 443.47 657.688 443.919 657.688 444.472C657.688 445.026 658.585 445.474 659.692 445.474Z" fill="#E6E6E6"/>
<path d="M664.422 449.022C665.529 449.022 666.426 448.573 666.426 448.02C666.426 447.467 665.529 447.018 664.422 447.018C663.316 447.018 662.419 447.467 662.419 448.02C662.419 448.573 663.316 449.022 664.422 449.022Z" fill="#E6E6E6"/>
</svg>
