<svg width="653" height="757" viewBox="0 0 653 757" fill="none" xmlns="http://www.w3.org/2000/svg">
<path d="M635.369 198.865H629.98C628.791 198.865 627.827 199.828 627.827 201.017V276.637C627.827 277.826 628.791 278.79 629.98 278.79H635.369C636.559 278.79 637.523 277.826 637.523 276.637V201.017C637.523 199.828 636.559 198.865 635.369 198.865Z" fill="#3F3D56"/>
<path d="M309.456 136.246H306.832C306.053 136.246 305.421 136.877 305.421 137.656V161.149C305.421 161.927 306.053 162.559 306.832 162.559H309.456C310.235 162.559 310.866 161.927 310.866 161.149V137.656C310.866 136.877 310.235 136.246 309.456 136.246Z" fill="#3F3D56"/>
<path d="M309.766 184.416H306.813C305.935 184.416 305.224 185.127 305.224 186.004V228.628C305.224 229.505 305.935 230.216 306.813 230.216H309.766C310.644 230.216 311.355 229.505 311.355 228.628V186.004C311.355 185.127 310.644 184.416 309.766 184.416Z" fill="#3F3D56"/>
<path d="M309.644 246.245H306.832C305.996 246.245 305.318 246.922 305.318 247.758V290.927C305.318 291.763 305.996 292.44 306.832 292.44H309.644C310.48 292.44 311.158 291.763 311.158 290.927V247.758C311.158 246.922 310.48 246.245 309.644 246.245Z" fill="#3F3D56"/>
<path d="M599.491 49.2883H342.071C323.533 49.2883 308.506 64.3098 308.506 82.8398V675.081C308.506 693.611 323.533 708.632 342.071 708.632H599.491C618.028 708.632 633.056 693.611 633.056 675.081V82.8398C633.056 64.3098 618.028 49.2883 599.491 49.2883Z" fill="#3F3D56"/>
<path d="M482.405 68.9832H441.862C440.543 68.9832 439.473 70.0522 439.473 71.371V75.7987C439.473 77.1175 440.543 78.1865 441.862 78.1865H482.405C483.724 78.1865 484.793 77.1175 484.793 75.7987V71.371C484.793 70.0522 483.724 68.9832 482.405 68.9832Z" fill="#E6E8EC"/>
<path d="M496.869 78.7974C499.752 78.7974 502.088 76.4615 502.088 73.58C502.088 70.6985 499.752 68.3625 496.869 68.3625C493.986 68.3625 491.649 70.6985 491.649 73.58C491.649 76.4615 493.986 78.7974 496.869 78.7974Z" fill="#E6E8EC"/>
<path d="M613.015 92.2312V665.68C613.012 672.512 610.295 679.064 605.461 683.894C600.627 688.725 594.072 691.438 587.237 691.438H354.325C347.49 691.438 340.934 688.725 336.1 683.894C331.266 679.064 328.549 672.512 328.547 665.68V92.2312C328.547 85.3972 331.263 78.8431 336.097 74.0108C340.931 69.1784 347.488 66.4636 354.325 66.4636H389.178V70.9854C389.18 76.6119 391.417 82.0072 395.397 85.9858C399.378 89.9643 404.775 92.2005 410.404 92.203H528.901C534.522 92.1906 539.909 89.9496 543.879 85.9719C547.85 81.9942 550.08 76.6045 550.08 70.9854V66.5106H587.237C594.065 66.5106 600.615 69.219 605.448 74.0412C610.281 78.8634 613.002 85.4054 613.015 92.2312V92.2312Z" fill="white"/>
<path d="M365.836 121.27H336.682V125.031H365.836V121.27Z" fill="#3F3D56"/>
<path d="M365.836 127.851H336.682V131.611H365.836V127.851Z" fill="#3F3D56"/>
<path d="M365.836 134.431H336.682V138.192H365.836V134.431Z" fill="#3F3D56"/>
<path d="M365.836 121.27H336.682V125.031H365.836V121.27Z" fill="#3F3D56"/>
<path d="M365.836 127.851H336.682V131.611H365.836V127.851Z" fill="#3F3D56"/>
<path d="M365.836 134.431H336.682V138.192H365.836V134.431Z" fill="#3F3D56"/>
<path d="M424.144 188.016H336.682V207.758H424.144V188.016Z" fill="#A63F3F"/>
<path opacity="0.3" d="M604.711 219.979H336.682V230.32H604.711V219.979Z" fill="#A63F3F"/>
<path opacity="0.3" d="M443.893 242.541H336.682V252.881H443.893V242.541Z" fill="#A63F3F"/>
<path d="M424.144 417.396H336.682V437.137H424.144V417.396Z" fill="#A63F3F"/>
<path opacity="0.3" d="M604.711 449.358H336.682V459.699H604.711V449.358Z" fill="#A63F3F"/>
<path opacity="0.3" d="M443.893 471.92H336.682V482.261H443.893V471.92Z" fill="#A63F3F"/>
<path d="M424.144 532.085H336.682V551.827H424.144V532.085Z" fill="#A63F3F"/>
<path opacity="0.3" d="M604.711 564.048H336.682V574.389H604.711V564.048Z" fill="#A63F3F"/>
<path opacity="0.3" d="M443.893 586.61H336.682V596.951H443.893V586.61Z" fill="#A63F3F"/>
<path d="M556.747 667.457C574.407 667.457 588.723 653.147 588.723 635.494C588.723 617.842 574.407 603.531 556.747 603.531C539.088 603.531 524.772 617.842 524.772 635.494C524.772 653.147 539.088 667.457 556.747 667.457Z" fill="#A63F3F"/>
<path d="M603.77 311.195V389.165C603.77 393.902 601.887 398.445 598.536 401.795C595.185 405.145 590.64 407.027 585.901 407.027H328.547V293.277H585.901C588.253 293.277 590.581 293.741 592.752 294.642C594.924 295.543 596.896 296.864 598.556 298.528C600.216 300.193 601.531 302.169 602.426 304.342C603.321 306.516 603.777 308.844 603.77 311.195V311.195Z" fill="#DADADA"/>
<path d="M555.779 277.324H213.511C203.627 277.324 195.614 285.333 195.614 295.213V373.184C195.614 383.064 203.627 391.073 213.511 391.073H555.779C565.663 391.073 573.676 383.064 573.676 373.184V295.213C573.676 285.333 565.663 277.324 555.779 277.324Z" fill="#F2F2F2"/>
<path d="M555.779 277.324H213.511C203.627 277.324 195.614 285.333 195.614 295.213V373.184C195.614 383.064 203.627 391.073 213.511 391.073H555.779C565.663 391.073 573.676 383.064 573.676 373.184V295.213C573.676 285.333 565.663 277.324 555.779 277.324Z" fill="#F2F2F2"/>
<path d="M329.158 301.766H241.696V321.507H329.158V301.766Z" fill="#A63F3F"/>
<path opacity="0.3" d="M509.725 333.729H241.696V344.069H509.725V333.729Z" fill="#A63F3F"/>
<path opacity="0.3" d="M348.908 356.29H241.696V366.631H348.908V356.29Z" fill="#A63F3F"/>
<path d="M86.8413 265.657C105.41 265.657 120.462 250.61 120.462 232.049C120.462 213.488 105.41 198.441 86.8413 198.441C68.2729 198.441 53.2202 213.488 53.2202 232.049C53.2202 250.61 68.2729 265.657 86.8413 265.657Z" fill="#3F3D56"/>
<path d="M67.3364 493.486C70.8066 517.824 66.5746 542.642 59.982 566.323C58.75 570.732 57.424 575.179 55.1199 579.136C52.8158 583.094 49.6088 586.497 46.9003 590.22C41.2576 597.985 37.9472 607.141 34.8532 616.204C26.3229 641.28 19.1587 666.8 13.392 692.651C13.0446 693.711 13.0446 694.853 13.392 695.913C14.2102 697.793 16.693 698.038 18.7338 698.028L45.1229 697.887C46.0633 696.082 44.3235 694.127 43.242 692.397C39.4802 686.55 43.0915 678.954 46.4113 672.834C54.4798 657.971 60.7256 642.189 65.0135 625.83C66.8191 618.939 68.2862 611.898 71.2204 605.402C74.7659 597.524 80.324 590.746 84.8382 583.376C90.0859 574.812 93.9135 565.515 97.7129 556.18C103.017 543.225 108.368 530.111 110.456 516.273C112.422 503.281 111.453 490.045 110.174 476.968C110.233 476.579 110.199 476.182 110.075 475.809C109.95 475.435 109.739 475.097 109.458 474.821C109.177 474.546 108.834 474.341 108.458 474.224C108.082 474.107 107.684 474.081 107.296 474.148L71.8882 472.324C64.5902 471.948 62.8598 470.35 63.9696 477.514C64.7407 482.863 66.5652 488.071 67.3364 493.486Z" fill="#3F3D56"/>
<path opacity="0.1" d="M67.3364 493.486C70.8066 517.824 66.5746 542.642 59.982 566.323C58.75 570.732 57.424 575.179 55.1199 579.136C52.8158 583.094 49.6088 586.497 46.9003 590.22C41.2576 597.985 37.9472 607.141 34.8532 616.204C26.3229 641.28 19.1587 666.8 13.392 692.651C13.0446 693.711 13.0446 694.853 13.392 695.913C14.2102 697.793 16.693 698.038 18.7338 698.028L45.1229 697.887C46.0633 696.082 44.3235 694.127 43.242 692.397C39.4802 686.55 43.0915 678.954 46.4113 672.834C54.4798 657.971 60.7256 642.189 65.0135 625.83C66.8191 618.939 68.2862 611.898 71.2204 605.402C74.7659 597.524 80.324 590.746 84.8382 583.376C90.0859 574.812 93.9135 565.515 97.7129 556.18C103.017 543.225 108.368 530.111 110.456 516.273C112.422 503.281 111.453 490.045 110.174 476.968C110.233 476.579 110.199 476.182 110.075 475.809C109.95 475.435 109.739 475.097 109.458 474.821C109.177 474.546 108.834 474.341 108.458 474.224C108.082 474.107 107.684 474.081 107.296 474.148L71.8882 472.324C64.5902 471.948 62.8598 470.35 63.9696 477.514C64.7407 482.863 66.5652 488.071 67.3364 493.486Z" fill="black"/>
<path d="M74.2957 434.308C67.1012 444.649 59.5588 456.55 61.9475 468.931C63.7626 478.332 70.9289 485.617 77.6907 492.433C104.719 519.564 131.296 549.703 140.494 586.883C142.864 596.49 144.011 606.352 146.052 616.025C149.758 633.605 156.397 650.413 162.98 667.119L180.586 711.66C186.057 711.794 191.438 710.242 195.997 707.215C200.557 704.188 204.074 699.832 206.072 694.738C203.758 694.56 200.739 692.322 199.385 690.442C191.862 680.035 190.319 666.649 188.391 653.957C186.256 639.931 183.407 626.018 180.548 612.114L167.946 550.614C166.488 543.517 165.03 536.41 163.131 529.425C155.776 502.322 141.839 476.78 139.685 448.757C139.366 444.639 139.168 440.117 136.375 437.062C133.441 433.838 128.626 433.302 124.271 433.048C106.657 431.882 91.4589 430.162 74.2957 434.308Z" fill="#3F3D56"/>
<path d="M26.7747 692.021C24.8566 691.566 22.8959 691.314 20.925 691.269C19.0362 691.336 17.1889 691.842 15.5302 692.748C13.8715 693.654 12.447 694.934 11.3701 696.487C10.2713 698.247 9.40818 700.143 8.80262 702.127L6.254 709.441C5.50164 711.584 4.76809 714.057 5.88722 716.021C6.71376 717.256 7.91308 718.195 9.31047 718.701C15.4798 721.446 22.4298 721.596 29.154 722.254C35.6807 722.893 42.151 724.04 48.5931 725.253C50.8126 725.667 53.0227 726.09 55.2703 726.315C60.2924 726.823 65.352 726.315 70.374 725.864L75.5559 725.366C77.2904 725.291 79.0061 724.975 80.6531 724.426C81.4759 724.147 82.2335 723.704 82.8801 723.124C83.5267 722.544 84.0488 721.839 84.4149 721.051C85.694 717.883 82.9478 714.132 79.5904 713.53C78.2268 713.258 76.8161 713.38 75.4336 713.201C73.8668 712.933 72.3383 712.475 70.8818 711.838C64.2517 709.234 57.5556 706.602 51.7248 702.503C50.1073 701.366 48.4144 699.777 48.5931 697.803C48.7613 696.957 49.0428 696.138 49.4301 695.368C50.2207 693.351 50.2475 691.114 49.5054 689.079C49.1856 688.214 48.5649 687.302 47.6903 687.199C45.2075 686.898 45.5085 690.517 45.1417 691.899C44.6432 693.779 43.7404 693.948 41.9724 693.779C36.8939 693.234 31.8155 692.98 26.7747 692.021Z" fill="#F2F2F2"/>
<path d="M175.244 717.244C175.289 720.917 176.553 724.471 178.836 727.349C179.534 728.208 180.406 728.91 181.394 729.408C182.867 730.013 184.461 730.268 186.05 730.151C190.526 730.054 194.95 729.159 199.112 727.509C200.579 726.845 202.087 726.277 203.627 725.808C205.565 725.411 207.524 725.129 209.495 724.962C217.273 723.843 224.1 719.255 231.614 716.933C233.86 716.377 236.06 715.655 238.198 714.771C241.169 713.37 243.577 711.011 245.938 708.726C247.327 707.494 248.525 706.062 249.492 704.477C250.875 701.901 250.96 698.837 251.016 695.923C251.067 695.468 250.988 695.009 250.79 694.597C250.576 694.3 250.282 694.069 249.944 693.93C247.659 692.802 244.95 693.366 242.42 693.807C233.279 695.434 223.922 695.133 214.639 694.832C213.759 694.953 212.863 694.78 212.091 694.34C211.319 693.899 210.714 693.217 210.37 692.397L206.843 686.757C205.837 685.14 204.238 683.288 202.413 683.843C200.956 684.284 200.363 686.071 200.42 687.603C200.476 689.135 200.946 690.658 200.655 692.153C200.447 692.976 200.073 693.747 199.555 694.42C199.037 695.092 198.388 695.652 197.645 696.064C196.164 696.869 194.583 697.476 192.943 697.869C187.752 699.335 181.714 700.999 177.698 704.816C174.792 707.561 175.065 713.624 175.244 717.244Z" fill="#F2F2F2"/>
<path d="M173.419 344.314C175.444 342.767 177.182 340.877 178.554 338.73C179.736 336.307 180.478 333.694 180.745 331.012L182.222 321.686C183.04 316.544 183.999 311.101 187.432 307.181C190.865 303.261 197.702 301.86 201.191 305.733C202.714 307.416 203.316 309.728 203.692 311.975C204.765 318.675 204.324 325.53 202.4 332.037C200.477 338.544 197.12 344.538 192.576 349.578C188.354 354.203 183.172 357.879 178.705 362.251C174.811 366.011 171.435 370.326 167.842 374.415C159.155 384.293 149.204 392.986 138.246 400.267C138.378 393.273 139.272 385.771 138.246 378.824C137.485 373.804 135.425 371.097 140.287 367.816C151.573 360.145 162.961 353.207 173.419 344.314Z" fill="#FBBEBE"/>
<path d="M78.5841 275.519C78.2174 280.52 76.139 285.634 72.001 288.52C83.719 292.619 95.2772 297.137 106.675 302.076C104.475 299.961 103.807 296.718 103.704 293.672C103.412 285.709 106.168 277.878 110.193 271.016C110.833 270.145 111.203 269.106 111.255 268.026C111.124 265.808 108.491 264.783 106.327 264.266C98.9477 262.477 91.4161 261.384 83.8319 261.004C80.5873 260.901 76.7409 259.876 77.4744 264.003C78.1703 267.857 78.8757 271.617 78.5841 275.519Z" fill="#FBBEBE"/>
<path d="M101.249 278.198C116.431 278.198 128.738 265.895 128.738 250.719C128.738 235.543 116.431 223.241 101.249 223.241C86.0671 223.241 73.7596 235.543 73.7596 250.719C73.7596 265.895 86.0671 278.198 101.249 278.198Z" fill="#FBBEBE"/>
<path d="M128.466 324.939C127.506 322.875 126.337 320.916 124.977 319.091C119.992 311.937 114.876 304.793 108.481 298.87C103.637 294.552 98.3939 290.702 92.8226 287.373C89.8165 285.313 86.5114 283.728 83.0231 282.673C80.9531 282.214 78.8487 281.928 76.7315 281.817L69.5934 281.234C68.9675 281.151 68.3323 281.17 67.7125 281.291C65.7752 281.779 64.8912 284.186 65.305 286.132C65.7188 288.078 67.1859 289.657 68.4837 291.133C68.8035 305.695 62.3237 320.06 61.4491 334.603C59.9162 359.985 75.443 383.684 76.6844 409.132C76.8124 410.282 76.6905 411.446 76.3271 412.545C76.1202 413.071 75.8098 413.551 75.5747 414.068C74.8412 415.666 74.8694 417.48 74.7377 419.238C74.2253 425.508 71.4789 431.385 66.9978 435.802C68.1624 437.247 69.6596 438.389 71.3615 439.13C74.3615 440.437 77.9446 440.55 81.1328 441.462C89.4464 443.887 97.9669 446.331 106.61 445.814C107.683 443.478 108.348 440.976 108.575 438.416C109.798 437.654 111.208 439.28 111.397 440.709C111.585 442.138 111.312 443.802 112.337 444.836C113.362 445.87 114.66 445.711 115.911 445.551C121.187 444.883 126.256 443.107 131.428 441.913C136.601 440.719 142.13 440.145 147.162 441.856C148.178 440.568 147.745 438.66 146.917 437.25C146.09 435.84 144.914 434.599 144.444 433.029C144.207 432.124 144.106 431.19 144.143 430.256C144.143 422.218 145.798 414.096 144.228 406.208C143.767 403.896 143.033 401.64 142.563 399.318C141.623 394.815 141.764 390.171 141.886 385.574C142.008 380.977 141.453 376.004 141.359 371.341C141.356 369.414 141.231 367.489 140.983 365.578C140.663 363.576 140.043 361.62 139.873 359.599C139.366 354.466 141.435 349.371 141.124 344.22C140.607 336.398 131.513 332.149 128.466 324.939Z" fill="#A63F3F"/>
<path d="M66.4241 321.254C59.7657 338.908 56.5117 357.635 53.2578 376.23L45.7342 419.906C43.5993 432.249 41.4551 444.667 41.5397 457.189C41.5397 460.705 41.7654 464.287 40.8438 467.68C39.64 472.136 36.6494 475.85 34.3829 479.901C29.7841 488.176 28.2522 497.806 30.0568 507.098C30.828 510.999 32.9346 515.427 36.8939 515.878C40.1479 516.236 42.9598 513.65 44.8595 510.981C49.2232 504.861 51.3863 497.472 53.3236 490.195C59.5603 466.416 63.9217 442.185 66.3677 417.725C66.6002 414.628 67.0369 411.551 67.6749 408.512C68.5055 405.379 69.568 402.312 70.8536 399.337C73.7314 392.205 76.6123 385.073 79.4964 377.94C86.1454 361.461 92.832 344.906 101.964 329.658C92.9354 327.063 83.5403 324.017 74.512 321.451C71.9069 320.68 69.1138 321.141 66.4241 321.254Z" fill="#FBBEBE"/>
<path d="M82.0732 334.64C75.7534 333.277 69.2173 333.7 62.7658 333.54C61.8496 333.607 60.937 333.369 60.1701 332.864C58.8629 331.745 59.4178 329.649 60.0761 328.06L63.1984 320.539C63.7108 318.985 64.5657 317.565 65.7 316.384C67.2893 314.974 69.5276 314.626 71.6342 314.372C78.4901 313.583 85.5435 313.319 92.1925 315.171C98.8415 317.023 105.095 321.235 108.067 327.468C109.309 330.062 109.882 333.334 108.237 335.693C105.791 339.2 100.309 343.12 96.2176 341.202C91.3179 338.908 87.5655 335.834 82.0732 334.64Z" fill="#A63F3F"/>
<path d="M115.676 208.04C110.251 207.982 104.928 209.515 100.365 212.449C96.041 208.353 90.7059 205.479 84.9058 204.121C79.1058 202.764 73.0489 202.971 67.3552 204.721C66.7488 201.257 65.2026 198.026 62.8851 195.38C60.5677 192.734 57.5679 190.775 54.213 189.717C50.8582 188.658 47.2769 188.54 43.8597 189.377C40.4426 190.213 37.3208 191.971 34.8347 194.46C32.3486 196.948 30.5937 200.071 29.7614 203.487C28.929 206.904 29.0511 210.484 30.1144 213.836C31.1777 217.188 33.1414 220.185 35.7912 222.498C38.4411 224.811 41.6755 226.352 45.1417 226.954C43.714 231.239 43.1651 235.768 43.5277 240.27C43.8903 244.772 45.157 249.155 47.2521 253.157C49.3472 257.159 52.2278 260.697 55.7217 263.561C59.2156 266.425 63.2512 268.555 67.5873 269.825C71.9234 271.095 76.4711 271.478 80.9587 270.952C85.4463 270.426 89.7817 269.001 93.7059 266.762C97.6302 264.523 101.063 261.516 103.798 257.922C106.534 254.327 108.517 250.218 109.628 245.84C111.612 246.246 113.632 246.451 115.657 246.451C128.917 246.451 139.676 237.85 139.676 227.246C139.676 216.641 128.917 208.04 115.676 208.04Z" fill="#3F3D56"/>
<path opacity="0.1" d="M120.462 236.844C118.437 236.849 116.417 236.645 114.434 236.233C113.492 239.671 112.006 242.937 110.033 245.906C111.892 246.264 113.782 246.447 115.676 246.451C128.071 246.451 138.246 238.931 139.554 229.304C135.143 233.892 128.231 236.844 120.462 236.844Z" fill="black"/>
<path opacity="0.1" d="M82.0356 260.882C76.7751 260.874 71.5895 259.634 66.8948 257.262C62.2001 254.89 58.1268 251.451 55.0015 247.221C51.8763 242.991 49.7862 238.088 48.8987 232.905C48.0112 227.722 48.351 222.403 49.891 217.375C45.4411 216.592 41.4095 214.267 38.5045 210.808C35.5995 207.349 34.007 202.977 34.0067 198.46C34.0048 197.306 34.1087 196.155 34.3171 195.02C31.9714 197.553 30.3521 200.671 29.6294 204.046C28.9067 207.422 29.1074 210.929 30.2103 214.2C31.3132 217.471 33.2777 220.385 35.897 222.634C38.5163 224.883 41.6936 226.385 45.0947 226.982C42.5055 235.48 43.3876 244.658 47.5482 252.508C51.7089 260.358 58.8095 266.242 67.2978 268.873C75.786 271.505 84.9713 270.67 92.8455 266.551C100.72 262.432 106.642 255.364 109.318 246.893C106.21 251.224 102.113 254.752 97.3687 257.185C92.6242 259.617 87.3679 260.885 82.0356 260.882V260.882Z" fill="black"/>
</svg>
