<svg width="909" height="751" viewBox="0 0 909 751" fill="none" xmlns="http://www.w3.org/2000/svg">
<path opacity="0.1" d="M693.966 693.618C693.966 695.679 689.897 697.657 682.394 699.513C652.352 706.93 567.425 712.276 467.183 712.276C368.565 712.276 284.655 707.098 253.465 699.859C245.066 697.909 240.4 695.81 240.4 693.618C240.4 692.853 240.96 692.097 242.061 691.351L691.717 690.977C693.201 691.845 693.966 692.685 693.966 693.618Z" fill="black"/>
<path d="M630.514 197.345H625.166C623.986 197.345 623.029 198.301 623.029 199.481V274.523C623.029 275.703 623.986 276.66 625.166 276.66H630.514C631.694 276.66 632.651 275.703 632.651 274.523V199.481C632.651 198.301 631.694 197.345 630.514 197.345Z" fill="#3F3D56"/>
<path d="M307.091 135.205H304.487C303.714 135.205 303.087 135.831 303.087 136.604V159.917C303.087 160.69 303.714 161.316 304.487 161.316H307.091C307.864 161.316 308.491 160.69 308.491 159.917V136.604C308.491 135.831 307.864 135.205 307.091 135.205Z" fill="#3F3D56"/>
<path d="M307.399 183.006H304.468C303.597 183.006 302.891 183.712 302.891 184.583V226.88C302.891 227.751 303.597 228.457 304.468 228.457H307.399C308.27 228.457 308.976 227.751 308.976 226.88V184.583C308.976 183.712 308.27 183.006 307.399 183.006Z" fill="#3F3D56"/>
<path d="M307.277 244.363H304.487C303.657 244.363 302.984 245.035 302.984 245.865V288.703C302.984 289.533 303.657 290.205 304.487 290.205H307.277C308.107 290.205 308.78 289.533 308.78 288.703V245.865C308.78 245.035 308.107 244.363 307.277 244.363Z" fill="#3F3D56"/>
<path d="M594.91 48.9117H339.456C321.061 48.9117 306.148 63.8185 306.148 82.2068V669.922C306.148 688.31 321.061 703.217 339.456 703.217H594.91C613.305 703.217 628.218 688.31 628.218 669.922V82.2068C628.218 63.8185 613.305 48.9117 594.91 48.9117Z" fill="#3F3D56"/>
<path d="M478.718 68.4559H438.485C437.176 68.4559 436.115 69.5168 436.115 70.8255V75.2194C436.115 76.5281 437.176 77.589 438.485 77.589H478.718C480.027 77.589 481.089 76.5281 481.089 75.2194V70.8255C481.089 69.5168 480.027 68.4559 478.718 68.4559Z" fill="#E6E8EC"/>
<path d="M493.072 78.1954C495.932 78.1954 498.251 75.8773 498.251 73.0178C498.251 70.1583 495.932 67.8402 493.072 67.8402C490.211 67.8402 487.892 70.1583 487.892 73.0178C487.892 75.8773 490.211 78.1954 493.072 78.1954Z" fill="#E6E8EC"/>
<path d="M608.33 91.5264V660.593C608.328 667.373 605.631 673.875 600.834 678.668C596.037 683.462 589.532 686.154 582.749 686.154H351.617C344.834 686.154 338.329 683.462 333.532 678.668C328.735 673.875 326.039 667.373 326.036 660.593V91.5264C326.036 84.7447 328.731 78.2407 333.529 73.4452C338.326 68.6498 344.832 65.9557 351.617 65.9557H386.204V70.443C386.206 76.0265 388.426 81.3806 392.376 85.3287C396.326 89.2768 401.682 91.496 407.267 91.4985H524.859C530.437 91.4861 535.783 89.2623 539.723 85.315C543.663 81.3676 545.876 76.0192 545.876 70.443V66.0024H582.749C589.526 66.0024 596.025 68.69 600.821 73.4754C605.617 78.2607 608.318 84.7528 608.33 91.5264V91.5264Z" fill="white"/>
<path d="M363.04 120.344H334.109V124.075H363.04V120.344Z" fill="#3F3D56"/>
<path d="M363.04 126.874H334.109V130.605H363.04V126.874Z" fill="#3F3D56"/>
<path d="M363.04 133.404H334.109V137.136H363.04V133.404Z" fill="#3F3D56"/>
<path d="M363.04 120.344H334.109V124.075H363.04V120.344Z" fill="#3F3D56"/>
<path d="M363.04 126.874H334.109V130.605H363.04V126.874Z" fill="#3F3D56"/>
<path d="M363.04 133.404H334.109V137.136H363.04V133.404Z" fill="#3F3D56"/>
<path d="M420.902 186.579H334.109V206.17H420.902V186.579Z" fill="#A63F3F"/>
<path opacity="0.3" d="M600.089 218.298H334.109V228.56H600.089V218.298Z" fill="#A63F3F"/>
<path opacity="0.3" d="M440.501 240.687H334.109V250.949H440.501V240.687Z" fill="#A63F3F"/>
<path d="M420.902 414.206H334.109V433.797H420.902V414.206Z" fill="#A63F3F"/>
<path opacity="0.3" d="M600.089 445.924H334.109V456.186H600.089V445.924Z" fill="#A63F3F"/>
<path opacity="0.3" d="M440.501 468.314H334.109V478.576H440.501V468.314Z" fill="#A63F3F"/>
<path d="M420.902 528.019H334.109V547.61H420.902V528.019Z" fill="#A63F3F"/>
<path opacity="0.3" d="M600.089 559.738H334.109V569.999H600.089V559.738Z" fill="#A63F3F"/>
<path opacity="0.3" d="M440.501 582.127H334.109V592.389H440.501V582.127Z" fill="#A63F3F"/>
<path d="M552.493 662.356C570.017 662.356 584.224 648.155 584.224 630.638C584.224 613.12 570.017 598.919 552.493 598.919C534.968 598.919 520.762 613.12 520.762 630.638C520.762 648.155 534.968 662.356 552.493 662.356Z" fill="#A63F3F"/>
<path opacity="0.1" d="M863.849 584.814C860.825 585.14 857.885 586.083 854.852 586.269C851.819 586.456 848.487 585.737 846.565 583.377C845.538 582.108 845.015 580.504 844.147 579.114C843.319 577.823 842.184 576.756 840.844 576.007C840.053 577.659 839.619 579.458 839.569 581.287C839.519 583.117 839.855 584.937 840.554 586.629C841.253 588.321 842.3 589.847 843.627 591.108C844.954 592.37 846.531 593.338 848.257 593.951C849.983 594.564 851.818 594.807 853.644 594.665C855.469 594.523 857.245 593.999 858.855 593.127C860.465 592.255 861.874 591.054 862.99 589.603C864.105 588.151 864.904 586.482 865.332 584.702C864.841 584.721 864.346 584.758 863.849 584.814Z" fill="black"/>
<path opacity="0.1" d="M842.253 669.941C840.836 673.106 838.219 675.58 834.977 676.817C831.736 678.054 828.136 677.953 824.969 676.536C821.802 675.12 819.328 672.504 818.09 669.264C816.853 666.023 816.954 662.425 818.371 659.259C819.452 659.966 820.421 660.83 821.245 661.824C822.496 663.336 823.317 665.062 824.754 666.489C827.433 669.12 831.754 670.221 835.608 670.305C837.828 670.315 840.047 670.194 842.253 669.941V669.941Z" fill="black"/>
<path opacity="0.2" d="M843.746 701.948C832.071 702.042 816.625 700.129 813.518 698.217C811.147 696.771 810.205 691.603 809.887 689.214H809.542C809.542 689.214 810.195 697.554 813.275 699.476C816.355 701.398 831.838 703.273 843.513 703.208C846.882 703.208 848.039 701.986 847.974 700.213C847.535 701.258 846.257 701.92 843.746 701.948Z" fill="black"/>
<path d="M599.156 308.817V386.191C599.156 390.892 597.288 395.4 593.962 398.724C590.637 402.049 586.127 403.916 581.424 403.916H326.036V291.036H581.424C583.757 291.036 586.068 291.496 588.223 292.39C590.378 293.284 592.335 294.595 593.982 296.247C595.63 297.899 596.935 299.859 597.822 302.016C598.71 304.173 599.163 306.484 599.156 308.817V308.817Z" fill="#DADADA"/>
<path d="M551.532 275.204H211.879C202.071 275.204 194.119 283.153 194.119 292.957V370.332C194.119 380.136 202.071 388.085 211.879 388.085H551.532C561.34 388.085 569.292 380.136 569.292 370.332V292.957C569.292 283.153 561.34 275.204 551.532 275.204Z" fill="#F2F2F2"/>
<path d="M551.532 275.204H211.879C202.071 275.204 194.119 283.153 194.119 292.957V370.332C194.119 380.136 202.071 388.085 211.879 388.085H551.532C561.34 388.085 569.292 380.136 569.292 370.332V292.957C569.292 283.153 561.34 275.204 551.532 275.204Z" fill="#F2F2F2"/>
<path d="M326.643 299.46H239.849V319.05H326.643V299.46Z" fill="#A63F3F"/>
<path opacity="0.3" d="M505.83 331.178H239.849V341.44H505.83V331.178Z" fill="#A63F3F"/>
<path opacity="0.3" d="M346.241 353.568H239.849V363.829H346.241V353.568Z" fill="#A63F3F"/>
<path d="M86.1777 263.627C104.604 263.627 119.542 248.695 119.542 230.276C119.542 211.857 104.604 196.925 86.1777 196.925C67.7511 196.925 52.8134 211.857 52.8134 230.276C52.8134 248.695 67.7511 263.627 86.1777 263.627Z" fill="#3F3D56"/>
<path d="M66.8218 489.714C70.2655 513.867 66.0658 538.496 59.5236 561.995C58.301 566.37 56.9851 570.783 54.6986 574.711C52.4121 578.638 49.2297 582.015 46.5419 585.709C40.9423 593.415 37.6572 602.502 34.5868 611.495C26.1217 636.379 19.0122 661.704 13.2897 687.358C12.9449 688.409 12.9449 689.543 13.2897 690.595C14.1016 692.461 16.5654 692.703 18.5906 692.694L44.778 692.554C45.7113 690.763 43.9848 688.822 42.9115 687.106C39.1784 681.303 42.7622 673.766 46.0566 667.692C54.0634 652.942 60.2615 637.281 64.5166 621.048C66.3085 614.209 67.7644 607.222 70.6761 600.776C74.1945 592.958 79.7101 586.232 84.1898 578.918C89.3974 570.419 93.1958 561.193 96.9662 551.929C102.23 539.074 107.54 526.06 109.612 512.328C111.562 499.435 110.601 486.3 109.332 473.323C109.391 472.937 109.357 472.543 109.234 472.172C109.11 471.802 108.9 471.466 108.621 471.193C108.342 470.92 108.002 470.716 107.629 470.6C107.256 470.484 106.861 470.458 106.476 470.525L71.3388 468.715C64.0966 468.342 62.3794 466.756 63.4807 473.865C64.246 479.173 66.0565 484.341 66.8218 489.714Z" fill="#3F3D56"/>
<path opacity="0.1" d="M66.8218 489.714C70.2655 513.867 66.0658 538.496 59.5236 561.995C58.301 566.37 56.9851 570.783 54.6986 574.711C52.4121 578.638 49.2297 582.015 46.5419 585.709C40.9423 593.415 37.6572 602.502 34.5868 611.495C26.1217 636.379 19.0122 661.704 13.2897 687.358C12.9449 688.409 12.9449 689.543 13.2897 690.595C14.1016 692.461 16.5654 692.703 18.5906 692.694L44.778 692.554C45.7113 690.763 43.9848 688.822 42.9115 687.106C39.1784 681.303 42.7622 673.766 46.0566 667.692C54.0634 652.942 60.2615 637.281 64.5166 621.048C66.3085 614.209 67.7644 607.222 70.6761 600.776C74.1945 592.958 79.7101 586.232 84.1898 578.918C89.3974 570.419 93.1958 561.193 96.9662 551.929C102.23 539.074 107.54 526.06 109.612 512.328C111.562 499.435 110.601 486.3 109.332 473.323C109.391 472.937 109.357 472.543 109.234 472.172C109.11 471.802 108.9 471.466 108.621 471.193C108.342 470.92 108.002 470.716 107.629 470.6C107.256 470.484 106.861 470.458 106.476 470.525L71.3388 468.715C64.0966 468.342 62.3794 466.756 63.4807 473.865C64.246 479.173 66.0565 484.341 66.8218 489.714Z" fill="black"/>
<path d="M73.7279 430.989C66.5884 441.251 59.1036 453.061 61.4741 465.347C63.2753 474.676 70.3868 481.906 77.097 488.67C103.919 515.593 130.293 545.502 139.42 582.398C141.772 591.932 142.911 601.718 144.936 611.318C148.613 628.763 155.202 645.443 161.735 662.02L179.205 706.221C184.635 706.354 189.975 704.815 194.5 701.811C199.024 698.807 202.514 694.484 204.497 689.429C202.201 689.252 199.205 687.031 197.861 685.166C190.395 674.838 188.865 661.554 186.952 648.96C184.833 635.041 182.005 621.234 179.168 607.437L166.662 546.407C165.216 539.363 163.769 532.31 161.884 525.379C154.586 498.484 140.755 473.137 138.618 445.327C138.3 441.241 138.105 436.754 135.333 433.722C132.421 430.522 127.643 429.99 123.322 429.739C105.842 428.582 90.76 426.875 73.7279 430.989Z" fill="#3F3D56"/>
<path d="M26.5701 686.733C24.6667 686.281 22.721 686.031 20.7652 685.987C18.8907 686.053 17.0576 686.555 15.4116 687.454C13.7655 688.353 12.3519 689.623 11.2832 691.164C10.1929 692.911 9.3363 694.792 8.73537 696.761L6.20622 704.019C5.45961 706.146 4.73166 708.6 5.84225 710.55C6.66247 711.775 7.85262 712.706 9.23933 713.208C15.3615 715.932 22.2584 716.082 28.9312 716.735C35.4081 717.369 41.8289 718.507 48.2218 719.711C50.4243 720.121 52.6175 720.541 54.848 720.765C59.8316 721.269 64.8526 720.765 69.8362 720.317L74.9785 719.823C76.6998 719.748 78.4023 719.434 80.0368 718.89C80.8533 718.613 81.6051 718.173 82.2467 717.598C82.8884 717.022 83.4066 716.322 83.7699 715.541C85.0391 712.397 82.314 708.675 78.9822 708.077C77.629 707.807 76.2291 707.928 74.8572 707.751C73.3023 707.485 71.7855 707.03 70.3402 706.398C63.7607 703.814 57.1158 701.202 51.3296 697.135C49.7244 696.006 48.0445 694.429 48.2218 692.47C48.3886 691.631 48.668 690.818 49.0524 690.054C49.837 688.052 49.8635 685.833 49.1271 683.813C48.8098 682.955 48.1938 682.05 47.3259 681.947C44.8621 681.649 45.1607 685.24 44.7967 686.612C44.3021 688.477 43.4062 688.645 41.6516 688.477C36.612 687.936 31.5724 687.684 26.5701 686.733Z" fill="#F2F2F2"/>
<path d="M173.905 711.762C173.95 715.408 175.203 718.935 177.47 721.791C178.163 722.643 179.028 723.339 180.008 723.834C181.47 724.434 183.052 724.687 184.628 724.571C189.07 724.474 193.46 723.587 197.591 721.95C199.046 721.291 200.542 720.727 202.071 720.261C203.994 719.868 205.938 719.587 207.894 719.421C215.612 718.311 222.388 713.759 229.844 711.455C232.072 710.903 234.256 710.185 236.377 709.309C239.326 707.919 241.716 705.577 244.058 703.31C245.437 702.088 246.626 700.666 247.586 699.094C248.958 696.537 249.042 693.496 249.098 690.604C249.148 690.154 249.07 689.698 248.874 689.289C248.661 688.995 248.37 688.765 248.034 688.627C245.766 687.507 243.078 688.067 240.568 688.505C231.496 690.119 222.21 689.821 212.999 689.522C212.125 689.642 211.236 689.47 210.47 689.034C209.704 688.597 209.103 687.919 208.762 687.106L205.262 681.509C204.264 679.904 202.677 678.066 200.867 678.617C199.42 679.055 198.832 680.828 198.888 682.348C198.944 683.869 199.411 685.38 199.121 686.863C198.915 687.68 198.544 688.445 198.03 689.113C197.516 689.78 196.871 690.335 196.135 690.744C194.665 691.543 193.096 692.146 191.469 692.535C186.317 693.991 180.325 695.642 176.34 699.429C173.457 702.154 173.727 708.171 173.905 711.762Z" fill="#F2F2F2"/>
<path d="M172.094 341.683C174.104 340.147 175.828 338.272 177.19 336.141C178.362 333.737 179.099 331.144 179.364 328.482L180.829 319.228C181.641 314.125 182.593 308.723 186 304.833C189.406 300.943 196.191 299.553 199.653 303.396C201.165 305.066 201.763 307.361 202.136 309.591C203.201 316.24 202.763 323.042 200.854 329.499C198.945 335.957 195.614 341.905 191.105 346.907C186.914 351.497 181.772 355.144 177.339 359.482C173.475 363.214 170.125 367.496 166.56 371.554C157.938 381.357 148.064 389.982 137.19 397.208C137.321 390.268 138.207 382.823 137.19 375.929C136.434 370.947 134.39 368.261 139.215 365.005C150.414 357.392 161.716 350.508 172.094 341.683Z" fill="#FBBEBE"/>
<path d="M77.9836 273.413C77.6196 278.376 75.5571 283.451 71.4507 286.315C83.0792 290.383 94.549 294.867 105.86 299.768C103.676 297.668 103.014 294.45 102.911 291.427C102.622 283.526 105.356 275.755 109.351 268.945C109.986 268.081 110.353 267.049 110.405 265.978C110.275 263.776 107.661 262.76 105.515 262.246C98.1916 260.471 90.7175 259.387 83.1912 259.009C79.9715 258.907 76.1544 257.89 76.8824 261.985C77.573 265.81 78.2729 269.542 77.9836 273.413Z" fill="#FBBEBE"/>
<path d="M100.475 276.072C115.541 276.072 127.755 263.863 127.755 248.803C127.755 233.743 115.541 221.535 100.475 221.535C85.4094 221.535 73.196 233.743 73.196 248.803C73.196 263.863 85.4094 276.072 100.475 276.072Z" fill="#FBBEBE"/>
<path d="M127.484 322.456C126.532 320.408 125.371 318.464 124.022 316.653C119.075 309.554 113.998 302.464 107.652 296.586C102.845 292.301 97.6419 288.481 92.1132 285.177C89.1301 283.133 85.8502 281.56 82.3886 280.513C80.3345 280.057 78.2462 279.774 76.1451 279.664L69.0616 279.085C68.4405 279.003 67.8101 279.022 67.1951 279.141C65.2725 279.626 64.3953 282.014 64.8059 283.946C65.2166 285.877 66.6724 287.444 67.9604 288.909C68.2777 303.359 61.8475 317.614 60.9795 332.046C59.4583 357.234 74.8665 380.752 76.0984 406.006C76.2254 407.147 76.1045 408.302 75.7438 409.392C75.5385 409.915 75.2305 410.39 74.9972 410.903C74.2692 412.489 74.2972 414.29 74.1666 416.034C73.6581 422.256 70.9326 428.089 66.4858 432.472C67.6415 433.906 69.1272 435.039 70.8161 435.774C73.7933 437.071 77.349 437.183 80.5128 438.088C88.7628 440.495 97.2182 442.92 105.795 442.407C106.86 440.09 107.52 437.606 107.745 435.065C108.959 434.31 110.359 435.924 110.545 437.342C110.732 438.76 110.461 440.411 111.478 441.437C112.496 442.463 113.784 442.305 115.025 442.146C120.261 441.484 125.291 439.721 130.424 438.536C135.557 437.351 141.044 436.782 146.037 438.48C147.045 437.202 146.616 435.308 145.795 433.909C144.973 432.509 143.807 431.278 143.34 429.72C143.105 428.822 143.005 427.895 143.041 426.968C143.041 418.992 144.684 410.931 143.125 403.104C142.668 400.809 141.94 398.571 141.474 396.266C140.54 391.798 140.68 387.189 140.802 382.627C140.923 378.065 140.372 373.13 140.279 368.503C140.276 366.591 140.151 364.681 139.906 362.785C139.588 360.798 138.972 358.857 138.804 356.851C138.301 351.758 140.354 346.701 140.046 341.589C139.532 333.828 130.508 329.611 127.484 322.456Z" fill="#A63F3F"/>
<path d="M65.9165 318.799C59.309 336.318 56.0799 354.902 52.8508 373.354L45.3847 416.697C43.2662 428.946 41.1383 441.269 41.2223 453.695C41.2223 457.184 41.4463 460.739 40.5317 464.106C39.3371 468.528 36.3693 472.213 34.1202 476.234C29.5564 484.445 28.0363 494.002 29.8271 503.223C30.5924 507.094 32.6829 511.488 36.612 511.936C39.8411 512.291 42.6315 509.725 44.5167 507.076C48.8471 501.002 50.9936 493.67 52.9161 486.449C59.1052 462.852 63.4333 438.806 65.8605 414.532C66.0912 411.46 66.5246 408.406 67.1577 405.39C67.982 402.281 69.0363 399.238 70.3122 396.285C73.168 389.207 76.0269 382.13 78.8889 375.052C85.4871 358.699 92.1226 342.27 101.185 327.139C92.2252 324.564 82.9019 321.541 73.9426 318.994C71.3574 318.23 68.5856 318.687 65.9165 318.799Z" fill="#FBBEBE"/>
<path d="M81.446 332.083C75.1745 330.73 68.6883 331.15 62.2861 330.991C61.3769 331.058 60.4713 330.821 59.7103 330.32C58.413 329.21 58.9637 327.129 59.617 325.553L62.7154 318.09C63.224 316.547 64.0723 315.138 65.1979 313.966C66.7751 312.567 68.9963 312.222 71.0868 311.97C77.8903 311.186 84.8898 310.925 91.488 312.763C98.0861 314.601 104.292 318.78 107.241 324.965C108.473 327.54 109.043 330.786 107.409 333.128C104.983 336.608 99.542 340.498 95.4823 338.595C90.62 336.318 86.8963 333.268 81.446 332.083Z" fill="#A63F3F"/>
<path d="M114.792 206.45C109.408 206.393 104.126 207.914 99.598 210.825C95.307 206.761 90.0127 203.909 84.257 202.561C78.5012 201.214 72.4907 201.42 66.8404 203.157C66.2387 199.719 64.7043 196.513 62.4046 193.887C60.1048 191.261 57.128 189.317 53.7988 188.267C50.4695 187.216 46.9156 187.1 43.5246 187.93C40.1335 188.76 37.0356 190.504 34.5685 192.974C32.1014 195.443 30.3599 198.542 29.5339 201.932C28.7079 205.323 28.8291 208.876 29.8843 212.202C30.9395 215.529 32.8881 218.502 35.5177 220.797C38.1474 223.093 41.357 224.623 44.7967 225.22C43.38 229.472 42.8352 233.967 43.195 238.434C43.5549 242.902 44.8119 247.251 46.891 251.222C48.9701 255.193 51.8287 258.705 55.2959 261.547C58.7631 264.389 62.7678 266.503 67.0708 267.763C71.3738 269.024 75.8867 269.404 80.34 268.881C84.7933 268.359 89.0956 266.945 92.9898 264.723C96.8841 262.501 100.29 259.518 103.005 255.951C105.72 252.384 107.688 248.306 108.791 243.962C110.759 244.364 112.764 244.568 114.773 244.568C127.932 244.568 138.608 236.032 138.608 225.509C138.608 214.986 127.932 206.45 114.792 206.45Z" fill="#3F3D56"/>
<path opacity="0.1" d="M119.542 235.034C117.532 235.039 115.527 234.836 113.56 234.427C112.625 237.84 111.15 241.08 109.192 244.027C111.037 244.382 112.912 244.564 114.792 244.568C127.092 244.568 137.19 237.105 138.487 227.552C134.11 232.105 127.251 235.034 119.542 235.034Z" fill="black"/>
<path opacity="0.1" d="M81.4087 258.888C76.1884 258.88 71.0425 257.65 66.3836 255.296C61.7247 252.942 57.6826 249.529 54.5812 245.331C51.4799 241.134 49.4057 236.268 48.525 231.125C47.6443 225.981 47.9815 220.703 49.5097 215.714C45.0938 214.937 41.093 212.63 38.2102 209.197C35.3274 205.764 33.7471 201.426 33.7469 196.944C33.745 195.799 33.848 194.656 34.0548 193.529C31.7271 196.043 30.1201 199.138 29.403 202.487C28.6858 205.837 28.8849 209.317 29.9794 212.563C31.074 215.809 33.0234 218.7 35.6226 220.933C38.2219 223.165 41.3749 224.655 44.7501 225.248C42.1806 233.681 43.056 242.788 47.1849 250.578C51.3137 258.368 58.3601 264.207 66.7835 266.818C75.2069 269.43 84.322 268.601 92.136 264.514C99.95 260.427 105.827 253.413 108.483 245.006C105.398 249.304 101.333 252.805 96.6246 255.219C91.9163 257.633 86.7003 258.891 81.4087 258.888V258.888Z" fill="black"/>
</svg>
