<svg width="57" height="57" viewBox="0 0 57 57" fill="none" xmlns="http://www.w3.org/2000/svg">
<path d="M6.17538 23.0941C9.55776 17.2254 18.2685 12.312 28.4806 12.312C38.6927 12.312 47.3978 17.2277 50.7824 23.0919H50.7722C51.8356 23.1667 52.854 23.5505 53.7023 24.1962C54.5505 24.8419 55.1917 25.7213 55.5471 26.7264C55.9024 27.7314 55.9564 28.8184 55.7025 29.8538C55.4486 30.8891 54.8977 31.8278 54.1177 32.5544C53.3376 33.281 52.3623 33.7639 51.3116 33.9439C50.2608 34.1238 49.1804 33.9929 48.203 33.5672C47.2256 33.1415 46.3939 32.4396 45.8099 31.5477C45.226 30.6558 44.9153 29.6128 44.916 28.5468C44.916 29.2654 44.7745 29.9769 44.4995 30.6408C44.2245 31.3047 43.8214 31.9079 43.3133 32.416C42.8052 32.9242 42.2019 33.3272 41.538 33.6022C40.8741 33.8772 40.1626 34.0188 39.444 34.0188C38.7254 34.0188 38.0139 33.8772 37.35 33.6022C36.6861 33.3272 36.0828 32.9242 35.5747 32.416C35.0666 31.9079 34.6635 31.3047 34.3885 30.6408C34.1135 29.9769 33.972 29.2654 33.972 28.5468C33.972 29.998 33.3955 31.3898 32.3693 32.416C31.3431 33.4422 29.9513 34.0188 28.5 34.0188C27.0487 34.0188 25.6569 33.4422 24.6307 32.416C23.6045 31.3898 23.028 29.998 23.028 28.5468C23.028 29.998 22.4515 31.3898 21.4253 32.416C20.3991 33.4422 19.0073 34.0188 17.556 34.0188C16.1047 34.0188 14.7129 33.4422 13.6867 32.416C12.6605 31.3898 12.084 29.998 12.084 28.5468C12.0843 29.6102 11.7747 30.6507 11.193 31.5411C10.6114 32.4314 9.7829 33.1329 8.8089 33.5599C7.83489 33.9868 6.75758 34.1207 5.7087 33.9452C4.65982 33.7696 3.68482 33.2922 2.90293 32.5714C2.12104 31.8505 1.56615 30.9174 1.30611 29.8863C1.04607 28.8551 1.09214 27.7704 1.43871 26.765C1.78527 25.7596 2.4173 24.877 3.25751 24.225C4.09771 23.5731 5.10969 23.1801 6.16968 23.0941H6.17538Z" fill="#FAAE3B"/>
<path d="M50.3812 34.0175C48.9299 34.0175 47.5381 33.441 46.5119 32.4148C45.4857 31.3886 44.9092 29.9968 44.9092 28.5455C44.9092 29.9968 44.3326 31.3886 43.3064 32.4148C42.2802 33.441 40.8884 34.0175 39.4372 34.0175C37.9859 34.0175 36.5941 33.441 35.5679 32.4148C34.5417 31.3886 33.9652 29.9968 33.9652 28.5455C33.9652 29.9968 33.3886 31.3886 32.3624 32.4148C31.3362 33.441 29.9444 34.0175 28.4932 34.0175C27.0419 34.0175 25.6501 33.441 24.6239 32.4148C23.5977 31.3886 23.0212 29.9968 23.0212 28.5455C23.0212 29.9968 22.4446 31.3886 21.4184 32.4148C20.3922 33.441 19.0004 34.0175 17.5492 34.0175C16.0979 34.0175 14.7061 33.441 13.6799 32.4148C12.6537 31.3886 12.0772 29.9968 12.0772 28.5455C12.0783 29.3435 11.9047 30.1321 11.5684 30.8557C11.2321 31.5794 10.7414 32.2206 10.1307 32.7343C9.51997 33.2479 8.80417 33.6216 8.03358 33.8289C7.26299 34.0362 6.45634 34.0722 5.67036 33.9343L7.46814 40.6786C7.77464 41.8293 8.45267 42.8465 9.39686 43.5722C10.341 44.2978 11.4985 44.6913 12.6893 44.6914H44.1533C45.3443 44.6912 46.5018 44.2977 47.4461 43.5721C48.3905 42.8464 49.0688 41.8293 49.3757 40.6786L51.1666 33.9526C50.9067 33.9932 50.6442 34.0149 50.3812 34.0175Z" fill="#B3814B"/>
<path d="M28.5 17.1901V19.673" stroke="black" stroke-width="2" stroke-linecap="round" stroke-linejoin="round"/>
<path d="M21.839 17.1901L18.8784 19.673" stroke="black" stroke-width="2" stroke-linecap="round" stroke-linejoin="round"/>
<path d="M35.161 17.1901L38.1216 19.673" stroke="black" stroke-width="2" stroke-linecap="round" stroke-linejoin="round"/>
<path opacity="0.2" d="M50.3812 34.0176C51.7917 34.0074 53.1438 33.453 54.1553 32.4699C55.1669 31.4868 55.7598 30.1511 55.8102 28.7414C55.8607 27.3318 55.3648 25.9571 54.4261 24.9042C53.4874 23.8514 52.1784 23.2017 50.7722 23.0907H50.7824C47.3978 17.2231 38.6893 12.312 28.4806 12.312C28.4806 12.312 44.8316 16.4719 44.9103 28.5513C44.9118 30.0014 45.4888 31.3916 46.5146 32.4165C47.5404 33.4415 48.9311 34.0173 50.3812 34.0176Z" fill="black"/>
<path d="M50.3812 34.0175C48.9299 34.0175 47.5381 33.441 46.5119 32.4148C45.4857 31.3886 44.9092 29.9968 44.9092 28.5455C44.9092 29.9968 44.3326 31.3886 43.3064 32.4148C42.2802 33.441 40.8884 34.0175 39.4372 34.0175C37.9859 34.0175 36.5941 33.441 35.5679 32.4148C34.5417 31.3886 33.9652 29.9968 33.9652 28.5455C33.9652 29.9968 33.3886 31.3886 32.3624 32.4148C31.3362 33.441 29.9444 34.0175 28.4932 34.0175C27.0419 34.0175 25.6501 33.441 24.6239 32.4148C23.5977 31.3886 23.0212 29.9968 23.0212 28.5455C23.0212 29.9968 22.4446 31.3886 21.4184 32.4148C20.3922 33.441 19.0004 34.0175 17.5492 34.0175C16.0979 34.0175 14.7061 33.441 13.6799 32.4148C12.6537 31.3886 12.0772 29.9968 12.0772 28.5455C12.0783 29.3435 11.9047 30.1321 11.5684 30.8557C11.2321 31.5794 10.7414 32.2206 10.1307 32.7343C9.51997 33.2479 8.80417 33.6216 8.03358 33.8289C7.26299 34.0362 6.45634 34.0722 5.67036 33.9343L7.46814 40.6786C7.77464 41.8293 8.45267 42.8465 9.39686 43.5722C10.341 44.2978 11.4985 44.6913 12.6893 44.6914H44.1533C45.3443 44.6912 46.5018 44.2977 47.4461 43.5721C48.3905 42.8464 49.0688 41.8293 49.3757 40.6786L51.1666 33.9526C50.9067 33.9932 50.6442 34.0149 50.3812 34.0175V34.0175Z" stroke="black" stroke-width="2" stroke-linecap="round" stroke-linejoin="round"/>
<path opacity="0.3" d="M50.331 34.0552C48.9644 34.0546 47.6474 33.5427 46.6392 32.6201C45.631 31.6976 45.0045 30.4311 44.8829 29.0699C44.9434 31.6156 44.4737 43.3929 30.78 44.7256H44.118C45.3088 44.7253 46.4661 44.3318 47.4103 43.6061C48.3544 42.8805 49.0325 41.8634 49.3392 40.7128L51.1301 33.9868C50.8658 34.0292 50.5987 34.0521 50.331 34.0552Z" fill="black"/>
<path d="M6.17538 23.0941C9.55776 17.2254 18.2685 12.312 28.4806 12.312C38.6927 12.312 47.3978 17.2277 50.7824 23.0919H50.7722C51.8356 23.1667 52.854 23.5505 53.7023 24.1962C54.5505 24.8419 55.1917 25.7213 55.5471 26.7264C55.9024 27.7314 55.9564 28.8184 55.7025 29.8538C55.4486 30.8891 54.8977 31.8278 54.1177 32.5544C53.3376 33.281 52.3623 33.7639 51.3115 33.9439C50.2608 34.1238 49.1804 33.9929 48.203 33.5672C47.2256 33.1415 46.3939 32.4396 45.8099 31.5477C45.226 30.6558 44.9153 29.6128 44.916 28.5468C44.916 29.2653 44.7745 29.9769 44.4995 30.6408C44.2245 31.3047 43.8214 31.9079 43.3133 32.416C42.8052 32.9242 42.2019 33.3272 41.538 33.6022C40.8742 33.8772 40.1626 34.0188 39.444 34.0188C38.7254 34.0188 38.0139 33.8772 37.35 33.6022C36.6861 33.3272 36.0828 32.9242 35.5747 32.416C35.0666 31.9079 34.6635 31.3047 34.3885 30.6408C34.1135 29.9769 33.972 29.2653 33.972 28.5468C33.972 29.998 33.3955 31.3898 32.3693 32.416C31.3431 33.4422 29.9513 34.0188 28.5 34.0188C27.0487 34.0188 25.6569 33.4422 24.6307 32.416C23.6045 31.3898 23.028 29.998 23.028 28.5468C23.028 29.998 22.4515 31.3898 21.4253 32.416C20.3991 33.4422 19.0073 34.0188 17.556 34.0188C16.1047 34.0188 14.7129 33.4422 13.6867 32.416C12.6605 31.3898 12.084 29.998 12.084 28.5468C12.0843 29.6102 11.7747 30.6507 11.193 31.5411C10.6114 32.4314 9.7829 33.1329 8.8089 33.5599C7.83489 33.9868 6.75758 34.1207 5.7087 33.9452C4.65982 33.7696 3.68482 33.2922 2.90293 32.5714C2.12104 31.8505 1.56615 30.9174 1.30611 29.8863C1.04607 28.8551 1.09214 27.7704 1.43871 26.765C1.78527 25.7596 2.4173 24.877 3.25751 24.225C4.09771 23.5731 5.10969 23.1801 6.16968 23.0941H6.17538Z" stroke="black" stroke-width="2" stroke-linecap="round" stroke-linejoin="round"/>
</svg>
