<svg width="277" height="169" viewBox="0 0 277 169" fill="none" xmlns="http://www.w3.org/2000/svg">
<path d="M146.155 36.5308V46.2544" stroke="#404040" stroke-width="5" stroke-linecap="round" stroke-linejoin="round"/>
<path d="M118.579 36.5308L106.5 46.2544" stroke="#404040" stroke-width="5" stroke-linecap="round" stroke-linejoin="round"/>
<path d="M173.076 36.4474L185.155 46.1711" stroke="#404040" stroke-width="5" stroke-linecap="round" stroke-linejoin="round"/>
<path opacity="0.2" d="M235.421 102.568C241.186 102.528 246.713 100.342 250.848 96.4669C254.983 92.5914 257.407 87.3257 257.613 81.7685C257.819 76.2113 255.792 70.792 251.955 66.6413C248.118 62.4907 242.767 59.9295 237.019 59.492H237.061C223.226 36.3607 187.629 17 145.899 17C145.899 17 212.736 33.3991 213.058 81.0189C213.064 86.7355 215.423 92.2159 219.616 96.2564C223.809 100.297 229.493 102.567 235.421 102.568Z" fill="#404040"/>
<path d="M235.305 102.597C229.397 102.597 223.731 100.34 219.554 96.3229C215.376 92.3057 213.03 86.8573 213.03 81.1763C213.03 86.8573 210.683 92.3057 206.505 96.3229C202.328 100.34 196.662 102.597 190.754 102.597C184.846 102.597 179.18 100.34 175.003 96.3229C170.826 92.3057 168.479 86.8573 168.479 81.1763C168.479 86.8573 166.132 92.3057 161.954 96.3229C157.777 100.34 152.111 102.597 146.203 102.597C140.295 102.597 134.63 100.34 130.452 96.3229C126.275 92.3057 123.928 86.8573 123.928 81.1763C123.928 86.8573 121.581 92.3057 117.403 96.3229C113.226 100.34 107.56 102.597 101.652 102.597C95.7445 102.597 90.0786 100.34 85.9011 96.3229C81.7237 92.3057 79.3768 86.8573 79.3768 81.1763C79.3816 84.3 78.6747 87.3869 77.3057 90.2198C75.9368 93.0526 73.939 95.5627 71.453 97.5734C68.967 99.5841 66.0531 101.047 62.9162 101.858C59.7793 102.67 56.4956 102.811 53.296 102.271L60.6144 128.672C61.8621 133.176 64.6222 137.158 68.4658 139.999C72.3095 142.84 77.0212 144.38 81.8689 144.38H209.953C214.801 144.379 219.513 142.839 223.357 139.999C227.201 137.158 229.963 133.176 231.212 128.672L238.503 102.342C237.444 102.501 236.376 102.586 235.305 102.597V102.597Z" stroke="#404040" stroke-width="5" stroke-linecap="round" stroke-linejoin="round"/>
<path opacity="0.3" d="M234.992 101.038C229.382 101.035 223.975 99.0322 219.836 95.4223C215.697 91.8124 213.125 86.857 212.626 81.5308C212.874 91.4916 210.946 137.575 154.729 142.79H209.486C214.374 142.789 219.126 141.249 223.002 138.41C226.878 135.57 229.662 131.59 230.921 127.088L238.273 100.77C237.188 100.936 236.091 101.025 234.992 101.038Z" fill="#404040"/>
<path d="M58.1147 58.4901C71.4305 34.7407 105.723 14.8572 145.926 14.8572C186.129 14.8572 220.399 34.7499 233.724 58.4809H233.683C237.87 58.7838 241.879 60.3371 245.218 62.95C248.558 65.5629 251.082 69.1216 252.481 73.189C253.88 77.2563 254.093 81.6551 253.093 85.845C252.093 90.0349 249.925 93.8334 246.854 96.7738C243.783 99.7142 239.943 101.669 235.807 102.397C231.67 103.125 227.417 102.595 223.569 100.872C219.721 99.1497 216.447 96.3093 214.148 92.7C211.849 89.0907 210.626 84.8698 210.629 80.5557C210.629 83.4637 210.071 86.3432 208.989 89.0299C207.906 91.7165 206.32 94.1577 204.319 96.2139C202.319 98.2702 199.944 99.9013 197.33 101.014C194.717 102.127 191.915 102.7 189.087 102.7C186.258 102.7 183.456 102.127 180.843 101.014C178.229 99.9013 175.854 98.2702 173.854 96.2139C171.854 94.1577 170.267 91.7165 169.184 89.0299C168.102 86.3432 167.544 83.4637 167.544 80.5557C167.544 86.4287 165.275 92.0611 161.235 96.2139C157.195 100.367 151.716 102.7 146.002 102.7C140.289 102.7 134.81 100.367 130.77 96.2139C126.73 92.0611 124.46 86.4287 124.46 80.5557C124.46 86.4287 122.19 92.0611 118.151 96.2139C114.111 100.367 108.631 102.7 102.918 102.7C97.2046 102.7 91.7253 100.367 87.6853 96.2139C83.6454 92.0611 81.3758 86.4287 81.3758 80.5557C81.3769 84.8594 80.158 89.0701 77.8682 92.673C75.5784 96.2759 72.3168 99.1149 68.4824 100.843C64.6479 102.571 60.4068 103.112 56.2775 102.402C52.1483 101.691 48.3099 99.7596 45.2318 96.8425C42.1536 93.9253 39.9691 90.1494 38.9454 85.9764C37.9217 81.8034 38.1031 77.4142 39.4674 73.3454C40.8318 69.2767 43.3199 65.7048 46.6277 63.0666C49.9354 60.4283 53.9193 58.838 58.0923 58.4901H58.1147Z" stroke="#404040" stroke-width="5" stroke-linecap="round" stroke-linejoin="round"/>
</svg>
